<?xml version="1.0" encoding="utf-8"?>
<!-- Generator: Adobe Illustrator 25.3.1, SVG Export Plug-In . SVG Version: 6.00 Build 0)  -->
<svg version="1.1" id="Design" xmlns="http://www.w3.org/2000/svg" xmlns:xlink="http://www.w3.org/1999/xlink" x="0px" y="0px"
	 viewBox="0 0 1024 1024" style="enable-background:new 0 0 1024 1024;" xml:space="preserve">
<style type="text/css">
	.st0{fill:#666666;}
	.st1{fill:none;stroke:#000000;stroke-width:19.1271;stroke-linecap:round;stroke-miterlimit:10;}
</style>
<g>
	<path d="M-275.71,470.5c5.02,0,9.11,4.09,9.11,9.11v64.79c0,5.02-4.09,9.11-9.11,9.11h-46.89v-83H-275.71 M-275.71,453.5h-63.89
		v117h63.89c14.42,0,26.11-11.69,26.11-26.11v-64.79C-249.61,465.19-261.29,453.5-275.71,453.5L-275.71,453.5z"/>
</g>
<path d="M-166.72,470.5 M-209.22,504.97L-209.22,504.97c0,9.39,7.61,17,17,17h0h19v31.53h-45.33c-0.92,0-1.67-0.75-1.67-1.67v-79.66
	c0-0.92,0.75-1.67,1.67-1.67h51.33c4.69,0,8.5-3.81,8.5-8.5l0,0c0-4.69-3.81-8.5-8.5-8.5h-51.33c-10.31,0-18.67,8.36-18.67,18.67
	v79.66c0,10.31,8.36,18.67,18.67,18.67h50.8c6.37,0,11.53-5.16,11.53-11.53V516.5c0-6.37-5.16-11.53-11.53-11.53h-24.47"/>
<g>
	<g>
		<path class="st0" d="M437.02,498.41H280.67v253.81h156.35c36.39,0,66-26.19,66-58.39V556.8
			C503.02,524.6,473.41,498.41,437.02,498.41z M328.49,540.71h108.53c10.03,0,18.19,7.22,18.19,16.09v137.03
			c0,8.87-8.16,16.09-18.19,16.09H328.49V540.71z"/>
		<path class="st0" d="M701.23,607.28H598.5v3.17c0,21.58,19.84,39.13,44.23,39.13h41.84v60.34h-87.1c-9.41,0-17.34-6.46-18.1-14.74
			V555.43c0.76-8.26,8.69-14.72,18.1-14.72H702.5c13.18,0,23.91-9.49,23.91-21.15c0-5.67-2.49-10.99-7-14.95
			c-4.49-4-10.5-6.2-16.91-6.2H597.47c-35.18,0-64.13,24.33-65.91,55.4c-0.05,0.98-0.07,1.98-0.07,2.98v137.04c0,1,0.02,2,0.08,2.99
			c1.78,31.07,30.73,55.4,65.91,55.4h103.76c17.18,0,31.15-12.36,31.15-27.56v-89.83C732.39,619.64,718.41,607.28,701.23,607.28z"/>
	</g>
	<path d="M748.57,483.4"/>
	<g>
		<path d="M685.35,388.28c12.47,0,22.62,10.15,22.62,22.62v22.16c0,12.47-10.15,22.62-22.62,22.62H314.79
			c-12.47,0-22.62-10.15-22.62-22.62V410.9c0-12.47,10.15-22.62,22.62-22.62H685.35 M685.35,371.54H314.79
			c-21.65,0-39.36,17.71-39.36,39.36v22.16c0,21.65,17.71,39.36,39.36,39.36h370.56c21.65,0,39.36-17.71,39.36-39.36V410.9
			C724.71,389.25,707,371.54,685.35,371.54L685.35,371.54z"/>
	</g>
	<g>
		<path d="M676.18,411.6h-79.36c-5.88,0-10.68,4.81-10.68,10.68s4.81,10.68,10.68,10.68h79.36c5.88,0,10.68-4.81,10.68-10.68
			S682.05,411.6,676.18,411.6L676.18,411.6z"/>
	</g>
	<g>
		<path d="M346.8,409.13c-7.09,0-12.84,5.75-12.84,12.84c0,7.09,5.75,12.84,12.84,12.84c7.09,0,12.84-5.75,12.84-12.84
			C359.64,414.88,353.89,409.13,346.8,409.13L346.8,409.13z"/>
	</g>
	<g>
		<path d="M398.31,409.13c-7.09,0-12.84,5.75-12.84,12.84c0,7.09,5.75,12.84,12.84,12.84s12.84-5.75,12.84-12.84
			C411.15,414.88,405.4,409.13,398.31,409.13L398.31,409.13z"/>
	</g>
	<g>
		<path d="M449.81,409.13c-7.09,0-12.84,5.75-12.84,12.84c0,7.09,5.75,12.84,12.84,12.84s12.84-5.75,12.84-12.84
			C462.66,414.88,456.91,409.13,449.81,409.13L449.81,409.13z"/>
	</g>
	<path class="st0" d="M293.52,320.23l169.09-106.66c24.71-15.59,56.18-15.56,80.86,0.05l168.52,106.62
		c12.43,7.86,6.18,25.3-9.06,25.3H302.56C287.3,345.55,281.06,328.09,293.52,320.23z"/>
	<path d="M556.63,822.11h-78.77c-7.38,0-13.42-6.04-13.42-13.42v-29.32c0-7.38,6.04-13.42,13.42-13.42h78.77
		c7.38,0,13.42,6.04,13.42,13.42v29.32C570.05,816.07,564.01,822.11,556.63,822.11z"/>
	<line class="st1" x1="442.66" y1="794.03" x2="340.33" y2="794.03"/>
	<line class="st1" x1="314.69" y1="794.03" x2="291.91" y2="794.03"/>
	<line class="st1" x1="591.83" y1="794.03" x2="683.39" y2="794.03"/>
	<line class="st1" x1="710.86" y1="794.03" x2="728.57" y2="794.03"/>
</g>
</svg>
