<?xml version="1.0" encoding="utf-8"?>
<!-- Generator: Adobe Illustrator 25.3.1, SVG Export Plug-In . SVG Version: 6.00 Build 0)  -->
<svg version="1.1" id="Design" xmlns="http://www.w3.org/2000/svg" xmlns:xlink="http://www.w3.org/1999/xlink" x="0px" y="0px"
	 viewBox="0 0 1024 1024" style="enable-background:new 0 0 1024 1024;" xml:space="preserve">
<style type="text/css">
	.st0{fill:#666666;}
	.st1{fill:none;stroke:#000000;stroke-width:19.1271;stroke-linecap:round;stroke-miterlimit:10;}
</style>
<g>
	<g>
		<path class="st0" d="M391.3,490.12H139.63v408.56H391.3c58.58,0,106.24-42.16,106.24-93.99V584.11
			C497.55,532.29,449.89,490.12,391.3,490.12z M216.6,558.22h174.7c16.14,0,29.27,11.62,29.27,25.9v220.58
			c0,14.28-13.13,25.9-29.27,25.9H216.6V558.22z"/>
		<path class="st0" d="M816.6,665.37H651.23v5.11c0,34.73,31.94,62.99,71.2,62.99h67.35v97.13h-140.2
			c-15.15,0-27.91-10.4-29.13-23.72V581.91c1.23-13.3,13.98-23.69,29.13-23.69h169.07c21.22,0,38.49-15.27,38.49-34.05
			c0-9.13-4.01-17.68-11.26-24.06c-7.23-6.44-16.9-9.98-27.23-9.98H649.58c-56.63,0-103.23,39.16-106.1,89.17
			c-0.08,1.57-0.12,3.19-0.12,4.79v220.59c0,1.61,0.04,3.22,0.12,4.82c2.87,50.01,49.47,89.18,106.1,89.18H816.6
			c27.65,0,50.15-19.9,50.15-44.36v-144.6C866.75,685.27,844.25,665.37,816.6,665.37z"/>
	</g>
	<path d="M892.8,465.97"/>
	<g>
		<path d="M815.03,302.64c12.47,0,22.62,10.15,22.62,22.62v83.66c0,12.47-10.15,22.62-22.62,22.62H170.56
			c-12.47,0-22.62-10.15-22.62-22.62v-83.66c0-12.47,10.15-22.62,22.62-22.62H815.03 M815.03,285.91H170.56
			c-21.65,0-39.36,17.71-39.36,39.36v83.66c0,21.65,17.71,39.36,39.36,39.36h644.47c21.65,0,39.36-17.71,39.36-39.36v-83.66
			C854.39,303.62,836.68,285.91,815.03,285.91L815.03,285.91z"/>
	</g>
	<g>
		<path d="M776.73,367.13v0.92H648.08v-0.92H776.73 M782.79,350.39H642.02c-5.88,0-10.68,4.81-10.68,10.68v13.03
			c0,5.88,4.81,10.68,10.68,10.68h140.76c5.88,0,10.68-4.81,10.68-10.68v-13.03C793.47,355.2,788.66,350.39,782.79,350.39
			L782.79,350.39z"/>
	</g>
	<g>
		<path d="M246.08,363.16c2.17,0,3.94,1.77,3.94,3.94s-1.77,3.94-3.94,3.94s-3.94-1.77-3.94-3.94S243.91,363.16,246.08,363.16
			 M246.08,346.42c-11.42,0-20.67,9.26-20.67,20.67s9.26,20.67,20.67,20.67c11.42,0,20.67-9.26,20.67-20.67
			S257.5,346.42,246.08,346.42L246.08,346.42z"/>
	</g>
	<g>
		<path d="M328.99,363.16c2.17,0,3.94,1.77,3.94,3.94s-1.77,3.94-3.94,3.94s-3.94-1.77-3.94-3.94S326.82,363.16,328.99,363.16
			 M328.99,346.42c-11.42,0-20.67,9.26-20.67,20.67s9.26,20.67,20.67,20.67s20.67-9.26,20.67-20.67S340.41,346.42,328.99,346.42
			L328.99,346.42z"/>
	</g>
	<g>
		<path d="M411.9,363.16c2.17,0,3.94,1.77,3.94,3.94s-1.77,3.94-3.94,3.94s-3.94-1.77-3.94-3.94S409.73,363.16,411.9,363.16
			 M411.9,346.42c-11.42,0-20.67,9.26-20.67,20.67s9.26,20.67,20.67,20.67s20.67-9.26,20.67-20.67S423.32,346.42,411.9,346.42
			L411.9,346.42z"/>
	</g>
	<path class="st0" d="M160.31,203.32L432.49,31.62c39.77-25.09,90.43-25.05,130.16,0.09l271.26,171.63
		c20.01,12.66,9.95,40.73-14.59,40.73H174.87C150.31,244.06,140.27,215.96,160.31,203.32z"/>
	<path d="M592.02,1011.17H448.86c-7.38,0-13.42-6.04-13.42-13.42v-63.56c0-7.38,6.04-13.42,13.42-13.42h143.15
		c7.38,0,13.42,6.04,13.42,13.42v63.56C605.44,1005.13,599.4,1011.17,592.02,1011.17z"/>
	<line class="st1" x1="400.38" y1="965.97" x2="235.66" y2="965.97"/>
	<line class="st1" x1="194.39" y1="965.97" x2="157.72" y2="965.97"/>
	<line class="st1" x1="640.5" y1="965.97" x2="787.89" y2="965.97"/>
	<line class="st1" x1="832.11" y1="965.97" x2="860.6" y2="965.97"/>
</g>
</svg>
