<svg id="Design" xmlns="http://www.w3.org/2000/svg" viewBox="0 0 58.36 58.36"><defs><style>.cls-1{fill:#fff;}.cls-2{fill:#b0eeff;}.cls-3{fill:#009b28;}.cls-4{fill:#bf0000;}.cls-5{fill:none;stroke:#fff;stroke-linecap:round;stroke-miterlimit:10;stroke-width:1.65px;}</style></defs><path class="cls-1" d="M23.55,29.43H10.09V51.28H23.55c3.13,0,5.68-2.26,5.68-5V34.46C29.23,31.69,26.68,29.43,23.55,29.43ZM14.2,33.07h9.35a1.48,1.48,0,0,1,1.56,1.39V46.25a1.48,1.48,0,0,1-1.56,1.39H14.2Z"/><path class="cls-1" d="M46.29,38.8H37.45v.28a3.6,3.6,0,0,0,3.8,3.36h3.61v5.2h-7.5a1.51,1.51,0,0,1-1.56-1.27v-12a1.51,1.51,0,0,1,1.56-1.27h9a2,2,0,0,0,2.06-1.82,1.71,1.71,0,0,0-.6-1.28,2.18,2.18,0,0,0-1.46-.54h-9c-3,0-5.52,2.1-5.68,4.77V46.51c.16,2.67,2.65,4.77,5.68,4.77h8.93A2.54,2.54,0,0,0,49,48.91V41.17A2.55,2.55,0,0,0,46.29,38.8Z"/><rect class="cls-2" x="10.36" y="19.23" width="37.23" height="7.24" rx="1.2"/><path class="cls-1" d="M46.39,20a.49.49,0,0,1,.48.48v4.84a.49.49,0,0,1-.48.48H11.56a.49.49,0,0,1-.48-.48V20.43a.49.49,0,0,1,.48-.48H46.39m0-1.44H11.56a1.93,1.93,0,0,0-1.92,1.92v4.84a1.92,1.92,0,0,0,1.92,1.92H46.39a1.92,1.92,0,0,0,1.92-1.92V20.43a1.93,1.93,0,0,0-1.92-1.92Z"/><path d="M44.13,22H37.3a.92.92,0,1,0,0,1.84h6.83a.92.92,0,0,0,0-1.84Z"/><path class="cls-3" d="M15.78,21.75a1.11,1.11,0,0,0,0,2.21,1.11,1.11,0,1,0,0-2.21Z"/><path class="cls-3" d="M20.21,21.75a1.11,1.11,0,0,0,0,2.21,1.11,1.11,0,1,0,0-2.21Z"/><path class="cls-4" d="M24.65,21.75a1.11,1.11,0,1,0,1.1,1.1,1.11,1.11,0,0,0-1.1-1.1Z"/><rect class="cls-1" x="25.91" y="52.46" width="9.09" height="4.83" rx="1.16"/><line class="cls-5" x1="24.03" y1="54.88" x2="15.22" y2="54.88"/><line class="cls-5" x1="13.02" y1="54.88" x2="11.06" y2="54.88"/><line class="cls-5" x1="36.87" y1="54.88" x2="44.75" y2="54.88"/><line class="cls-5" x1="47.12" y1="54.88" x2="48.64" y2="54.88"/><path class="cls-1" d="M8.38,17.15H50.07a.75.75,0,0,0,.43-1.37L29.65,1.5a.76.76,0,0,0-.84,0L8,15.78A.75.75,0,0,0,8.38,17.15Z"/></svg>