<svg id="Design" xmlns="http://www.w3.org/2000/svg" viewBox="0 0 742 742"><defs><style>.cls-1{fill:#fff;}.cls-2{fill:#b0eeff;}.cls-3{fill:#009b28;}.cls-4{fill:#bf0000;}.cls-5{fill:none;stroke:#fff;stroke-linecap:round;stroke-miterlimit:10;stroke-width:19.13px;}</style></defs><path class="cls-1" d="M292,370.41H135.67V624.22H292c36.39,0,66-26.19,66-58.39v-137C358,396.6,328.41,370.41,292,370.41Zm-108.53,42.3H292c10,0,18.18,7.22,18.18,16.09v137c0,8.87-8.15,16.09-18.18,16.09H183.49Z"/><path class="cls-1" d="M556.23,479.28H453.5v3.17c0,21.58,19.84,39.13,44.23,39.13h41.84v60.34h-87.1c-9.41,0-17.34-6.46-18.1-14.73V427.43c.76-8.26,8.69-14.72,18.1-14.72h105c13.18,0,23.91-9.48,23.91-21.15a19.76,19.76,0,0,0-7-14.94,25.29,25.29,0,0,0-16.91-6.21h-105c-35.18,0-64.13,24.33-65.91,55.4-.05,1-.08,2-.08,3v137c0,1,0,2,.08,3,1.78,31.07,30.73,55.41,65.91,55.41H556.23c17.18,0,31.16-12.37,31.16-27.56V506.84C587.39,491.64,573.41,479.28,556.23,479.28Z"/><rect class="cls-2" x="138.8" y="251.91" width="432.54" height="84.14" rx="13.98"/><path class="cls-1" d="M557.36,260.28a5.69,5.69,0,0,1,5.61,5.61v56.18a5.69,5.69,0,0,1-5.61,5.61H152.78a5.69,5.69,0,0,1-5.61-5.61V265.89a5.69,5.69,0,0,1,5.61-5.61H557.36m0-16.74H152.78a22.42,22.42,0,0,0-22.35,22.35v56.18a22.42,22.42,0,0,0,22.35,22.35H557.36a22.42,22.42,0,0,0,22.35-22.35V265.89a22.42,22.42,0,0,0-22.35-22.35Z"/><path d="M531.18,283.6H451.82a10.69,10.69,0,0,0,0,21.37h79.36a10.69,10.69,0,0,0,0-21.37Z"/><path class="cls-3" d="M201.8,281.13A12.85,12.85,0,1,0,214.64,294a12.84,12.84,0,0,0-12.84-12.85Z"/><path class="cls-3" d="M253.31,281.13A12.85,12.85,0,1,0,266.15,294a12.85,12.85,0,0,0-12.84-12.85Z"/><path class="cls-4" d="M304.81,281.13A12.85,12.85,0,1,0,317.66,294a12.84,12.84,0,0,0-12.85-12.85Z"/><rect class="cls-1" x="319.44" y="637.95" width="105.61" height="56.16" rx="13.42"/><line class="cls-5" x1="297.66" y1="666.03" x2="195.33" y2="666.03"/><line class="cls-5" x1="169.69" y1="666.03" x2="146.91" y2="666.03"/><line class="cls-5" x1="446.83" y1="666.03" x2="538.39" y2="666.03"/><line class="cls-5" x1="565.86" y1="666.03" x2="583.57" y2="666.03"/><path class="cls-1" d="M115.84,227.69H600.2a8.67,8.67,0,0,0,4.9-15.82L362.92,45.93a8.68,8.68,0,0,0-9.8,0L110.94,211.87A8.67,8.67,0,0,0,115.84,227.69Z"/></svg>